<mxfile host="app.diagrams.net" agent="Mozilla/5.0 (Windows NT 10.0; Win64; x64) AppleWebKit/537.36 (KHTML, like Gecko) Chrome/133.0.0.0 Safari/537.36" version="26.0.16">
  <diagram name="PÃ¡gina-1" id="I3lv2idX6qCKSHa-S2QK">
    <mxGraphModel dx="1434" dy="772" grid="1" gridSize="10" guides="1" tooltips="1" connect="1" arrows="1" fold="1" page="1" pageScale="1" pageWidth="827" pageHeight="1169" math="0" shadow="0">
      <root>
        <mxCell id="0" />
        <mxCell id="1" parent="0" />
        <mxCell id="2fTdF2LbN-ydWTbkAQNO-2" value="Jogador" style="shape=umlActor;verticalLabelPosition=bottom;verticalAlign=top;html=1;outlineConnect=0;" vertex="1" parent="1">
          <mxGeometry x="150" y="200" width="60" height="120" as="geometry" />
        </mxCell>
        <mxCell id="2fTdF2LbN-ydWTbkAQNO-4" value="" style="endArrow=classic;html=1;rounded=0;" edge="1" parent="1" source="2fTdF2LbN-ydWTbkAQNO-2" target="2fTdF2LbN-ydWTbkAQNO-5">
          <mxGeometry width="50" height="50" relative="1" as="geometry">
            <mxPoint x="210" y="280" as="sourcePoint" />
            <mxPoint x="260" y="230" as="targetPoint" />
          </mxGeometry>
        </mxCell>
        <mxCell id="2fTdF2LbN-ydWTbkAQNO-5" value="Se cadastrar" style="ellipse;whiteSpace=wrap;html=1;" vertex="1" parent="1">
          <mxGeometry x="325" y="190" width="130" height="90" as="geometry" />
        </mxCell>
        <mxCell id="2fTdF2LbN-ydWTbkAQNO-6" value="" style="endArrow=none;html=1;rounded=0;" edge="1" parent="1" source="2fTdF2LbN-ydWTbkAQNO-5" target="2fTdF2LbN-ydWTbkAQNO-7">
          <mxGeometry width="50" height="50" relative="1" as="geometry">
            <mxPoint x="520" y="120" as="sourcePoint" />
            <mxPoint x="570" y="70" as="targetPoint" />
          </mxGeometry>
        </mxCell>
        <mxCell id="2fTdF2LbN-ydWTbkAQNO-7" value="Armazenar dados no sistema" style="ellipse;whiteSpace=wrap;html=1;" vertex="1" parent="1">
          <mxGeometry x="670" y="210" width="130" height="90" as="geometry" />
        </mxCell>
        <mxCell id="2fTdF2LbN-ydWTbkAQNO-14" value="Criar seu personagem" style="ellipse;whiteSpace=wrap;html=1;" vertex="1" parent="1">
          <mxGeometry x="320" y="300" width="130" height="90" as="geometry" />
        </mxCell>
        <mxCell id="2fTdF2LbN-ydWTbkAQNO-15" value="" style="endArrow=classic;html=1;rounded=0;entryX=0;entryY=0.5;entryDx=0;entryDy=0;" edge="1" parent="1" source="2fTdF2LbN-ydWTbkAQNO-2" target="2fTdF2LbN-ydWTbkAQNO-14">
          <mxGeometry width="50" height="50" relative="1" as="geometry">
            <mxPoint x="260" y="305" as="sourcePoint" />
            <mxPoint x="310" y="255" as="targetPoint" />
          </mxGeometry>
        </mxCell>
        <mxCell id="2fTdF2LbN-ydWTbkAQNO-16" value="" style="endArrow=none;html=1;rounded=0;exitX=1;exitY=0.5;exitDx=0;exitDy=0;entryX=0;entryY=0.5;entryDx=0;entryDy=0;" edge="1" parent="1" source="2fTdF2LbN-ydWTbkAQNO-14" target="2fTdF2LbN-ydWTbkAQNO-7">
          <mxGeometry width="50" height="50" relative="1" as="geometry">
            <mxPoint x="470" y="285" as="sourcePoint" />
            <mxPoint x="520" y="235" as="targetPoint" />
          </mxGeometry>
        </mxCell>
        <mxCell id="2fTdF2LbN-ydWTbkAQNO-19" value="Sistema" style="shape=umlActor;verticalLabelPosition=bottom;verticalAlign=top;html=1;outlineConnect=0;" vertex="1" parent="1">
          <mxGeometry x="980" y="440" width="60" height="120" as="geometry" />
        </mxCell>
        <mxCell id="2fTdF2LbN-ydWTbkAQNO-21" value="" style="endArrow=classic;html=1;rounded=0;entryX=1;entryY=0.5;entryDx=0;entryDy=0;" edge="1" parent="1" source="2fTdF2LbN-ydWTbkAQNO-19" target="2fTdF2LbN-ydWTbkAQNO-7">
          <mxGeometry width="50" height="50" relative="1" as="geometry">
            <mxPoint x="920" y="270" as="sourcePoint" />
            <mxPoint x="790" y="260" as="targetPoint" />
          </mxGeometry>
        </mxCell>
        <mxCell id="2fTdF2LbN-ydWTbkAQNO-22" value="Poder excluir personagem" style="ellipse;whiteSpace=wrap;html=1;" vertex="1" parent="1">
          <mxGeometry x="325" y="410" width="120" height="80" as="geometry" />
        </mxCell>
        <mxCell id="2fTdF2LbN-ydWTbkAQNO-23" value="" style="endArrow=classic;html=1;rounded=0;" edge="1" parent="1" source="2fTdF2LbN-ydWTbkAQNO-2" target="2fTdF2LbN-ydWTbkAQNO-22">
          <mxGeometry width="50" height="50" relative="1" as="geometry">
            <mxPoint x="180" y="460" as="sourcePoint" />
            <mxPoint x="230" y="410" as="targetPoint" />
          </mxGeometry>
        </mxCell>
        <mxCell id="2fTdF2LbN-ydWTbkAQNO-24" value="" style="endArrow=none;html=1;rounded=0;exitX=1;exitY=0;exitDx=0;exitDy=0;entryX=0;entryY=1;entryDx=0;entryDy=0;" edge="1" parent="1" source="2fTdF2LbN-ydWTbkAQNO-22" target="2fTdF2LbN-ydWTbkAQNO-7">
          <mxGeometry width="50" height="50" relative="1" as="geometry">
            <mxPoint x="610" y="440" as="sourcePoint" />
            <mxPoint x="660" y="390" as="targetPoint" />
          </mxGeometry>
        </mxCell>
        <mxCell id="2fTdF2LbN-ydWTbkAQNO-27" value="" style="endArrow=classic;html=1;rounded=0;" edge="1" parent="1" source="2fTdF2LbN-ydWTbkAQNO-19" target="2fTdF2LbN-ydWTbkAQNO-28">
          <mxGeometry width="50" height="50" relative="1" as="geometry">
            <mxPoint x="660" y="530" as="sourcePoint" />
            <mxPoint x="710" y="480" as="targetPoint" />
          </mxGeometry>
        </mxCell>
        <mxCell id="2fTdF2LbN-ydWTbkAQNO-28" value="Armazenar dados de diferentes personagens" style="ellipse;whiteSpace=wrap;html=1;" vertex="1" parent="1">
          <mxGeometry x="675" y="460" width="120" height="80" as="geometry" />
        </mxCell>
        <mxCell id="2fTdF2LbN-ydWTbkAQNO-29" value="Personagens" style="shape=umlActor;verticalLabelPosition=bottom;verticalAlign=top;html=1;outlineConnect=0;" vertex="1" parent="1">
          <mxGeometry x="150" y="470" width="60" height="120" as="geometry" />
        </mxCell>
        <mxCell id="2fTdF2LbN-ydWTbkAQNO-31" value="Desenvolvedor" style="shape=umlActor;verticalLabelPosition=bottom;verticalAlign=top;html=1;outlineConnect=0;" vertex="1" parent="1">
          <mxGeometry x="980" y="90" width="60" height="120" as="geometry" />
        </mxCell>
        <mxCell id="2fTdF2LbN-ydWTbkAQNO-32" value="" style="endArrow=classic;html=1;rounded=0;exitX=0;exitY=1;exitDx=0;exitDy=0;" edge="1" parent="1" source="2fTdF2LbN-ydWTbkAQNO-14" target="2fTdF2LbN-ydWTbkAQNO-29">
          <mxGeometry width="50" height="50" relative="1" as="geometry">
            <mxPoint x="330" y="380" as="sourcePoint" />
            <mxPoint x="260" y="440" as="targetPoint" />
          </mxGeometry>
        </mxCell>
        <mxCell id="2fTdF2LbN-ydWTbkAQNO-34" value="" style="endArrow=classic;html=1;rounded=0;" edge="1" parent="1" source="2fTdF2LbN-ydWTbkAQNO-2" target="2fTdF2LbN-ydWTbkAQNO-35">
          <mxGeometry width="50" height="50" relative="1" as="geometry">
            <mxPoint x="389" y="140" as="sourcePoint" />
            <mxPoint x="439" y="90" as="targetPoint" />
          </mxGeometry>
        </mxCell>
        <mxCell id="2fTdF2LbN-ydWTbkAQNO-35" value="Perder conta" style="ellipse;whiteSpace=wrap;html=1;" vertex="1" parent="1">
          <mxGeometry x="330" y="50" width="120" height="80" as="geometry" />
        </mxCell>
        <mxCell id="2fTdF2LbN-ydWTbkAQNO-36" value="" style="endArrow=classic;html=1;rounded=0;" edge="1" parent="1" source="2fTdF2LbN-ydWTbkAQNO-31" target="2fTdF2LbN-ydWTbkAQNO-39">
          <mxGeometry width="50" height="50" relative="1" as="geometry">
            <mxPoint x="827" y="175" as="sourcePoint" />
            <mxPoint x="877" y="125" as="targetPoint" />
          </mxGeometry>
        </mxCell>
        <mxCell id="2fTdF2LbN-ydWTbkAQNO-37" value="" style="endArrow=classic;html=1;rounded=0;exitX=1;exitY=0.5;exitDx=0;exitDy=0;" edge="1" parent="1" source="2fTdF2LbN-ydWTbkAQNO-35" target="2fTdF2LbN-ydWTbkAQNO-38">
          <mxGeometry width="50" height="50" relative="1" as="geometry">
            <mxPoint x="530" y="115" as="sourcePoint" />
            <mxPoint x="580" y="65" as="targetPoint" />
          </mxGeometry>
        </mxCell>
        <mxCell id="2fTdF2LbN-ydWTbkAQNO-38" value="Consultar Desenvolvedor" style="ellipse;whiteSpace=wrap;html=1;" vertex="1" parent="1">
          <mxGeometry x="560" y="50" width="120" height="80" as="geometry" />
        </mxCell>
        <mxCell id="2fTdF2LbN-ydWTbkAQNO-39" value="Ajudar Jogador" style="ellipse;whiteSpace=wrap;html=1;" vertex="1" parent="1">
          <mxGeometry x="760" y="50" width="120" height="80" as="geometry" />
        </mxCell>
        <mxCell id="2fTdF2LbN-ydWTbkAQNO-40" value="" style="endArrow=classic;html=1;rounded=0;entryX=1;entryY=0.5;entryDx=0;entryDy=0;exitX=0;exitY=0.5;exitDx=0;exitDy=0;" edge="1" parent="1" source="2fTdF2LbN-ydWTbkAQNO-39" target="2fTdF2LbN-ydWTbkAQNO-38">
          <mxGeometry width="50" height="50" relative="1" as="geometry">
            <mxPoint x="700" y="190" as="sourcePoint" />
            <mxPoint x="750" y="140" as="targetPoint" />
          </mxGeometry>
        </mxCell>
      </root>
    </mxGraphModel>
  </diagram>
</mxfile>
